<svg width="196" height="54" viewBox="0 0 196 54" fill="none" xmlns="http://www.w3.org/2000/svg">
<path d="M26.4214 3.23999C13.5113 3.23999 3.04688 14.0226 3.04688 27.3253C3.04688 40.6281 13.5113 51.4155 26.4214 51.4155C39.3316 51.4155 49.8007 40.6329 49.8007 27.3253C49.796 14.0226 39.3316 3.23999 26.4214 3.23999ZM21.3946 22.5641C21.4039 28.4171 21.4039 34.2701 21.4133 40.1231C21.4133 40.4453 21.3199 40.5271 21.0259 40.5271C18.6782 40.5174 16.3258 40.5126 13.978 40.5367C13.5906 40.5415 13.5113 40.4165 13.516 40.0461C13.53 37.0114 13.5206 33.9719 13.5206 30.9324H13.5066C13.5066 28.3016 13.502 25.6661 13.5113 23.0354C13.5113 22.5929 13.5253 22.1456 13.5533 21.7032C13.6606 20.0488 14.2161 18.553 15.2196 17.2737C16.8298 15.2153 18.9535 14.1573 21.516 14.1428C26.8649 14.114 32.2091 14.138 37.558 14.138C38.0387 14.138 38.5195 14.1477 39.0049 14.1525C39.2383 14.1573 39.3363 14.2727 39.3316 14.5228C39.3223 16.9852 39.3176 19.4428 39.3223 21.9052C39.3223 22.1697 39.2289 22.237 38.9815 22.237C37.824 22.2274 36.6712 22.2418 35.5136 22.2418C30.9302 22.2418 26.3421 22.2418 21.7587 22.2322C21.5113 22.2274 21.3946 22.2563 21.3946 22.5641ZM32.6805 40.5319C28.6572 40.5319 25.3993 37.1749 25.3993 33.0293C25.3993 28.8836 28.6572 25.5266 32.6805 25.5266C36.7038 25.5266 39.9617 28.8884 39.9617 33.0293C39.9664 37.1701 36.7038 40.5319 32.6805 40.5319Z" fill="#FF2D55"/>
<path d="M67.5837 11.464V11.5939L67.1543 11.4784C67.2943 11.4688 67.439 11.464 67.5837 11.464Z" fill="#070707"/>
<path d="M77.8477 26.8492H72.8489C73.0636 25.7815 73.1943 24.9399 73.1943 24.1415C73.1943 22.0976 72.1161 21.5204 69.7917 21.5204H66.8605L62.7672 41.3158H56.1768L61.0029 17.9663L71.7287 17.0766C76.2094 17.0766 79.1359 19.4284 79.1359 22.4486C79.1359 23.0691 78.9632 23.7808 78.7485 24.4013L77.8477 26.8492Z" fill="#070707"/>
<path d="M100.503 41.3158C95.9383 41.3158 94.4728 41.3158 94.4728 38.9207C94.4728 37.7665 94.8602 36.0784 95.3782 33.5054L97.0585 25.5603C97.1892 24.8485 97.3152 24.1848 97.3152 23.651C97.3152 22.2322 96.5824 21.5637 94.3841 21.5637H89.9453L85.852 41.3158H79.1309L83.957 18.0144L95.6723 17.1728C101.101 17.1728 104.027 19.1254 104.027 23.1652C104.027 23.8289 103.985 24.5407 103.812 25.2958L100.503 41.3158Z" fill="#070707"/>
<path d="M124.153 20.9866L116.312 21.6984L113.857 33.6834C113.684 34.4384 113.6 35.0588 113.6 35.5927C113.6 36.9682 114.291 37.6367 116.531 37.6367H120.667L119.934 41.2773L115.668 41.7198C109.852 41.7198 106.879 40.2097 106.879 36.0832C106.879 35.3714 107.01 34.5298 107.182 33.6401L110.501 17.6585C113.731 17.216 114.291 16.1484 114.982 13.5753H118.039L117.222 17.5238H124.849L124.153 20.9866Z" fill="#070707"/>
<path d="M145.432 33.592C144.27 39.1853 140.307 41.6717 133.89 41.6236H132.34C126.828 41.6236 123.812 39.7143 123.812 35.6744C123.812 35.0107 123.897 34.2989 124.069 33.5439L125.792 25.2862C126.912 19.8275 131.047 17.2545 137.334 17.2545H138.884C144.354 17.2545 147.411 19.2071 147.411 23.247C147.411 23.9107 147.327 24.5792 147.154 25.3343L145.432 33.592ZM140.349 25.2958C140.48 24.6754 140.564 24.1415 140.564 23.6558C140.564 22.0591 139.7 21.304 137.418 21.304H137.115C134.184 21.304 132.937 22.8574 132.419 25.3439L130.697 33.6016C130.566 34.222 130.482 34.7991 130.482 35.2416C130.482 37.3721 131.948 37.5501 133.885 37.5934C137.031 37.5934 138.062 36.3044 138.622 33.5535L140.349 25.2958Z" fill="#070707"/>
<path d="M170.03 40.8734L159.047 41.6284C152.844 41.6284 149.913 39.7624 149.913 35.7706C149.913 35.1069 149.997 34.3518 150.17 33.5535C151.206 28.5806 152.494 22.5015 153.488 17.5287C158.011 17.5287 159.519 17.5287 159.519 20.0584C159.519 21.2559 159.173 22.9873 158.613 25.6084L156.933 33.5968C156.802 34.2172 156.718 34.8376 156.718 35.3281C156.718 36.8816 157.535 37.5934 159.864 37.5934H163.957L168.177 17.5287H174.898L170.03 40.8734Z" fill="#070707"/>
<path d="M193.591 20.9866L185.749 21.6984L183.294 33.6834C183.122 34.4384 183.038 35.0588 183.038 35.5927C183.038 36.9682 183.728 37.6367 185.969 37.6367H190.104L189.371 41.2773L185.105 41.7198C179.29 41.7198 176.316 40.2097 176.316 36.0832C176.316 35.3714 176.447 34.5298 176.62 33.6401L179.938 17.6585C183.168 17.216 183.728 16.1484 184.419 13.5753H187.476L186.659 17.5238H194.286L193.591 20.9866Z" fill="#070707"/>
</svg>
