<svg width="12" height="12" viewBox="0 0 12 12" fill="none" xmlns="http://www.w3.org/2000/svg">
<path d="M5.37005 0.67295C5.43425 0.562793 5.5262 0.471394 5.63674 0.407868C5.74729 0.344343 5.87256 0.310913 6.00005 0.310913C6.12755 0.310913 6.25282 0.344343 6.36336 0.407868C6.4739 0.471394 6.56586 0.562793 6.63005 0.67295L8.26047 3.47178L11.4268 4.15778C11.5514 4.18485 11.6666 4.24409 11.7611 4.32959C11.8557 4.4151 11.9261 4.52389 11.9655 4.64511C12.0048 4.76634 12.0118 4.89576 11.9855 5.02049C11.9593 5.14521 11.9008 5.26087 11.8159 5.35595L9.65755 7.77153L9.98422 10.9945C9.99711 11.1214 9.97647 11.2494 9.92439 11.3659C9.8723 11.4823 9.79058 11.583 9.68738 11.658C9.58418 11.733 9.46312 11.7796 9.33628 11.7932C9.20944 11.8067 9.08127 11.7868 8.96455 11.7353L6.00005 10.4286L3.03555 11.7353C2.91884 11.7868 2.79066 11.8067 2.66383 11.7932C2.53699 11.7796 2.41593 11.733 2.31273 11.658C2.20953 11.583 2.12781 11.4823 2.07572 11.3659C2.02363 11.2494 2.003 11.1214 2.01589 10.9945L2.34255 7.77153L0.184219 5.35653C0.0991852 5.26147 0.0405764 5.14575 0.0142437 5.02095C-0.0120889 4.89615 -0.00522411 4.76663 0.0341528 4.64531C0.0735297 4.52399 0.144041 4.41512 0.238648 4.32957C0.333254 4.24403 0.448646 4.18479 0.573302 4.15778L3.73964 3.47178L5.37005 0.67295Z" fill="white"/>
</svg>
